<svg width="1000" height="1000" viewBox="0 0 1000 1000" xmlns="http://www.w3.org/2000/svg">

        <defs>
            <filter id="solid-area">
                 <!-- Dilate slightly to merge gaps, then blur to smooth edges -->
                 <feMorphology operator="dilate" radius="1" in="SourceGraphic" result="dilated"/>
                 <feGaussianBlur stdDeviation="0.5" in="dilated" />
            </filter>
        </defs>
        <rect width="100%" height="100%" fill="#f4f1ea"/> 
        
<g filter="url(#solid-area)" fill="#aaaaaa" fill-opacity="0.5" style="mix-blend-mode: multiply;">
<circle cx="300.0" cy="250.0" r="50.0" stroke="none" />
<circle cx="305.7" cy="250.0" r="50.0" stroke="none" />
<circle cx="312.8" cy="250.0" r="50.0" stroke="none" />
<circle cx="321.1" cy="250.0" r="50.0" stroke="none" />
<circle cx="330.4" cy="250.0" r="50.0" stroke="none" />
<circle cx="340.6" cy="250.0" r="50.0" stroke="none" />
<circle cx="351.6" cy="250.0" r="50.0" stroke="none" />
<circle cx="363.2" cy="250.0" r="50.0" stroke="none" />
<circle cx="375.2" cy="250.0" r="50.0" stroke="none" />
<circle cx="387.5" cy="250.0" r="50.0" stroke="none" />
<circle cx="400.0" cy="250.0" r="50.0" stroke="none" />
<circle cx="412.5" cy="250.0" r="50.0" stroke="none" />
<circle cx="424.8" cy="250.0" r="50.0" stroke="none" />
<circle cx="436.8" cy="250.0" r="50.0" stroke="none" />
<circle cx="448.4" cy="250.0" r="50.0" stroke="none" />
<circle cx="459.4" cy="250.0" r="50.0" stroke="none" />
<circle cx="469.6" cy="250.0" r="50.0" stroke="none" />
<circle cx="478.9" cy="250.0" r="50.0" stroke="none" />
<circle cx="487.2" cy="250.0" r="50.0" stroke="none" />
<circle cx="494.3" cy="250.0" r="50.0" stroke="none" />
<circle cx="500.0" cy="250.0" r="50.0" stroke="none" />
</g>

                        <text x="400.0" y="250.0" 
                            text-anchor="middle" font-size="14" font-family="Georgia, serif" fill="#222" 
                            font-style="italic" style="text-shadow: 1px 1px 2px #fff; pointer-events: none;">The Emberfields</text>
                    
<g filter="url(#solid-area)" fill="#dcd3c1" fill-opacity="0.5" style="mix-blend-mode: multiply;">
<circle cx="100.0" cy="600.0" r="150.0" stroke="none" />
<circle cx="122.9" cy="594.3" r="150.0" stroke="none" />
<circle cx="151.2" cy="587.2" r="150.0" stroke="none" />
<circle cx="184.3" cy="578.9" r="150.0" stroke="none" />
<circle cx="221.6" cy="569.6" r="150.0" stroke="none" />
<circle cx="262.5" cy="559.4" r="150.0" stroke="none" />
<circle cx="306.4" cy="548.4" r="150.0" stroke="none" />
<circle cx="352.7" cy="536.8" r="150.0" stroke="none" />
<circle cx="400.8" cy="524.8" r="150.0" stroke="none" />
<circle cx="450.1" cy="512.5" r="150.0" stroke="none" />
<circle cx="500.0" cy="500.0" r="150.0" stroke="none" />
<circle cx="549.9" cy="487.5" r="150.0" stroke="none" />
<circle cx="599.2" cy="475.2" r="150.0" stroke="none" />
<circle cx="647.3" cy="463.2" r="150.0" stroke="none" />
<circle cx="693.6" cy="451.6" r="150.0" stroke="none" />
<circle cx="737.5" cy="440.6" r="150.0" stroke="none" />
<circle cx="778.4" cy="430.4" r="150.0" stroke="none" />
<circle cx="815.7" cy="421.1" r="150.0" stroke="none" />
<circle cx="848.8" cy="412.8" r="150.0" stroke="none" />
<circle cx="877.1" cy="405.7" r="150.0" stroke="none" />
<circle cx="900.0" cy="400.0" r="150.0" stroke="none" />
</g>

                        <text x="500.0" y="500.0" 
                            text-anchor="middle" font-size="14" font-family="Georgia, serif" fill="#222" 
                            font-style="italic" style="text-shadow: 1px 1px 2px #fff; pointer-events: none;">The Vale of Thareth</text>
                    
<g filter="url(#solid-area)" fill="#dcd3c1" fill-opacity="0.5" style="mix-blend-mode: multiply;">
<circle cx="100.0" cy="100.0" r="100.0" stroke="none" />
<circle cx="122.9" cy="99.4" r="100.0" stroke="none" />
<circle cx="151.2" cy="98.7" r="100.0" stroke="none" />
<circle cx="184.3" cy="97.9" r="100.0" stroke="none" />
<circle cx="221.6" cy="97.0" r="100.0" stroke="none" />
<circle cx="262.5" cy="95.9" r="100.0" stroke="none" />
<circle cx="306.4" cy="94.8" r="100.0" stroke="none" />
<circle cx="352.7" cy="93.7" r="100.0" stroke="none" />
<circle cx="400.8" cy="92.5" r="100.0" stroke="none" />
<circle cx="450.1" cy="91.2" r="100.0" stroke="none" />
<circle cx="500.0" cy="90.0" r="100.0" stroke="none" />
<circle cx="549.9" cy="88.8" r="100.0" stroke="none" />
<circle cx="599.2" cy="87.5" r="100.0" stroke="none" />
<circle cx="647.3" cy="86.3" r="100.0" stroke="none" />
<circle cx="693.6" cy="85.2" r="100.0" stroke="none" />
<circle cx="737.5" cy="84.1" r="100.0" stroke="none" />
<circle cx="778.4" cy="83.0" r="100.0" stroke="none" />
<circle cx="815.7" cy="82.1" r="100.0" stroke="none" />
<circle cx="848.8" cy="81.3" r="100.0" stroke="none" />
<circle cx="877.1" cy="80.6" r="100.0" stroke="none" />
<circle cx="900.0" cy="80.0" r="100.0" stroke="none" />
</g>

                        <text x="500.0" y="90.0" 
                            text-anchor="middle" font-size="14" font-family="Georgia, serif" fill="#222" 
                            font-style="italic" style="text-shadow: 1px 1px 2px #fff; pointer-events: none;">Serran Floodplain</text>
                    
<g filter="url(#solid-area)" fill="#8f915e" fill-opacity="0.5" style="mix-blend-mode: multiply;">
<circle cx="700.0" cy="350.0" r="50.0" stroke="none" />
<circle cx="705.7" cy="347.1" r="50.5" stroke="none" />
<circle cx="712.8" cy="343.6" r="51.0" stroke="none" />
<circle cx="721.1" cy="339.5" r="51.5" stroke="none" />
<circle cx="730.4" cy="334.8" r="52.0" stroke="none" />
<circle cx="740.6" cy="329.7" r="52.5" stroke="none" />
<circle cx="751.6" cy="324.2" r="53.0" stroke="none" />
<circle cx="763.2" cy="318.4" r="53.5" stroke="none" />
<circle cx="775.2" cy="312.4" r="54.0" stroke="none" />
<circle cx="787.5" cy="306.2" r="54.5" stroke="none" />
<circle cx="800.0" cy="300.0" r="55.0" stroke="none" />
<circle cx="812.5" cy="293.8" r="55.5" stroke="none" />
<circle cx="824.8" cy="287.6" r="56.0" stroke="none" />
<circle cx="836.8" cy="281.6" r="56.5" stroke="none" />
<circle cx="848.4" cy="275.8" r="57.0" stroke="none" />
<circle cx="859.4" cy="270.3" r="57.5" stroke="none" />
<circle cx="869.6" cy="265.2" r="58.0" stroke="none" />
<circle cx="878.9" cy="260.5" r="58.5" stroke="none" />
<circle cx="887.2" cy="256.4" r="59.0" stroke="none" />
<circle cx="894.3" cy="252.9" r="59.5" stroke="none" />
<circle cx="900.0" cy="250.0" r="60.0" stroke="none" />
</g>

                        <text x="800.0" y="300.0" 
                            text-anchor="middle" font-size="14" font-family="Georgia, serif" fill="#222" 
                            font-style="italic" style="text-shadow: 1px 1px 2px #fff; pointer-events: none;">The Blackfen</text>
                    
<g filter="url(#solid-area)" fill="#8c7b64" fill-opacity="0.5" style="mix-blend-mode: multiply;">
<circle cx="50.0" cy="950.0" r="60.0" stroke="none" />
<circle cx="62.3" cy="949.1" r="61.0" stroke="none" />
<circle cx="76.8" cy="947.9" r="62.0" stroke="none" />
<circle cx="93.1" cy="946.6" r="63.0" stroke="none" />
<circle cx="111.2" cy="945.0" r="64.0" stroke="none" />
<circle cx="130.9" cy="943.2" r="65.0" stroke="none" />
<circle cx="151.9" cy="941.3" r="66.0" stroke="none" />
<circle cx="174.2" cy="939.3" r="67.0" stroke="none" />
<circle cx="197.6" cy="937.3" r="68.0" stroke="none" />
<circle cx="221.9" cy="935.2" r="69.0" stroke="none" />
<circle cx="246.9" cy="933.1" r="70.0" stroke="none" />
<circle cx="272.4" cy="931.1" r="71.0" stroke="none" />
<circle cx="298.4" cy="929.1" r="72.0" stroke="none" />
<circle cx="324.6" cy="927.3" r="73.0" stroke="none" />
<circle cx="350.8" cy="925.5" r="74.0" stroke="none" />
<circle cx="377.0" cy="924.0" r="75.0" stroke="none" />
<circle cx="402.8" cy="922.6" r="76.0" stroke="none" />
<circle cx="428.2" cy="921.5" r="77.0" stroke="none" />
<circle cx="453.0" cy="920.7" r="78.0" stroke="none" />
<circle cx="477.0" cy="920.2" r="79.0" stroke="none" />
<circle cx="500.0" cy="920.0" r="80.0" stroke="none" />
<circle cx="523.0" cy="920.2" r="79.0" stroke="none" />
<circle cx="547.0" cy="920.7" r="78.0" stroke="none" />
<circle cx="571.8" cy="921.5" r="77.0" stroke="none" />
<circle cx="597.2" cy="922.6" r="76.0" stroke="none" />
<circle cx="623.0" cy="924.0" r="75.0" stroke="none" />
<circle cx="649.2" cy="925.5" r="74.0" stroke="none" />
<circle cx="675.4" cy="927.3" r="73.0" stroke="none" />
<circle cx="701.6" cy="929.1" r="72.0" stroke="none" />
<circle cx="727.6" cy="931.1" r="71.0" stroke="none" />
<circle cx="753.1" cy="933.1" r="70.0" stroke="none" />
<circle cx="778.1" cy="935.2" r="69.0" stroke="none" />
<circle cx="802.4" cy="937.3" r="68.0" stroke="none" />
<circle cx="825.8" cy="939.3" r="67.0" stroke="none" />
<circle cx="848.1" cy="941.3" r="66.0" stroke="none" />
<circle cx="869.1" cy="943.2" r="65.0" stroke="none" />
<circle cx="888.8" cy="945.0" r="64.0" stroke="none" />
<circle cx="906.9" cy="946.6" r="63.0" stroke="none" />
<circle cx="923.2" cy="947.9" r="62.0" stroke="none" />
<circle cx="937.7" cy="949.1" r="61.0" stroke="none" />
<circle cx="950.0" cy="950.0" r="60.0" stroke="none" />
</g>

                        <text x="500.0" y="920.0" 
                            text-anchor="middle" font-size="14" font-family="Georgia, serif" fill="#222" 
                            font-style="italic" style="text-shadow: 1px 1px 2px #fff; pointer-events: none;">Glimmerstone Peaks</text>
                    
<g filter="url(#solid-area)" fill="#89c4d9" fill-opacity="0.5" style="mix-blend-mode: multiply;">
<circle cx="300.0" cy="720.0" r="15.0" stroke="none" />
<circle cx="302.9" cy="718.9" r="15.0" stroke="none" />
<circle cx="306.4" cy="717.4" r="15.0" stroke="none" />
<circle cx="310.5" cy="715.8" r="15.0" stroke="none" />
<circle cx="315.2" cy="713.9" r="15.0" stroke="none" />
<circle cx="320.3" cy="711.9" r="15.0" stroke="none" />
<circle cx="325.8" cy="709.7" r="15.0" stroke="none" />
<circle cx="331.6" cy="707.4" r="15.0" stroke="none" />
<circle cx="337.6" cy="705.0" r="15.0" stroke="none" />
<circle cx="343.8" cy="702.5" r="15.0" stroke="none" />
<circle cx="350.0" cy="700.0" r="15.0" stroke="none" />
<circle cx="356.2" cy="697.5" r="15.0" stroke="none" />
<circle cx="362.4" cy="695.0" r="15.0" stroke="none" />
<circle cx="368.4" cy="692.6" r="15.0" stroke="none" />
<circle cx="374.2" cy="690.3" r="15.0" stroke="none" />
<circle cx="379.7" cy="688.1" r="15.0" stroke="none" />
<circle cx="384.8" cy="686.1" r="15.0" stroke="none" />
<circle cx="389.5" cy="684.2" r="15.0" stroke="none" />
<circle cx="393.6" cy="682.6" r="15.0" stroke="none" />
<circle cx="397.1" cy="681.1" r="15.0" stroke="none" />
<circle cx="400.0" cy="680.0" r="15.0" stroke="none" />
</g>

                        <text x="350.0" y="700.0" 
                            text-anchor="middle" font-size="14" font-family="Georgia, serif" fill="#222" 
                            font-style="italic" style="text-shadow: 1px 1px 2px #fff; pointer-events: none;">The Mirror Lakes</text>
                    
<g filter="url(#solid-area)" fill="#4f8cbf" fill-opacity="0.5" style="mix-blend-mode: multiply;">
<circle cx="150.0" cy="800.0" r="5.0" stroke="none" />
<circle cx="152.6" cy="795.8" r="5.2" stroke="none" />
<circle cx="155.5" cy="790.9" r="5.3" stroke="none" />
<circle cx="158.6" cy="785.1" r="5.5" stroke="none" />
<circle cx="162.0" cy="778.8" r="5.6" stroke="none" />
<circle cx="165.6" cy="771.9" r="5.8" stroke="none" />
<circle cx="169.5" cy="764.5" r="5.9" stroke="none" />
<circle cx="173.6" cy="756.6" r="6.0" stroke="none" />
<circle cx="178.0" cy="748.4" r="6.2" stroke="none" />
<circle cx="182.6" cy="739.9" r="6.3" stroke="none" />
<circle cx="187.5" cy="731.2" r="6.5" stroke="none" />
<circle cx="192.6" cy="722.5" r="6.7" stroke="none" />
<circle cx="198.0" cy="713.6" r="6.8" stroke="none" />
<circle cx="203.6" cy="704.8" r="7.0" stroke="none" />
<circle cx="209.5" cy="696.0" r="7.1" stroke="none" />
<circle cx="215.6" cy="687.5" r="7.2" stroke="none" />
<circle cx="222.0" cy="679.2" r="7.4" stroke="none" />
<circle cx="228.6" cy="671.2" r="7.5" stroke="none" />
<circle cx="235.5" cy="663.6" r="7.7" stroke="none" />
<circle cx="242.6" cy="656.5" r="7.8" stroke="none" />
<circle cx="250.0" cy="650.0" r="8.0" stroke="none" />
<circle cx="257.8" cy="643.9" r="8.1" stroke="none" />
<circle cx="266.2" cy="638.0" r="8.2" stroke="none" />
<circle cx="275.1" cy="632.3" r="8.3" stroke="none" />
<circle cx="284.4" cy="626.8" r="8.4" stroke="none" />
<circle cx="294.1" cy="621.5" r="8.5" stroke="none" />
<circle cx="304.2" cy="616.3" r="8.6" stroke="none" />
<circle cx="314.6" cy="611.3" r="8.7" stroke="none" />
<circle cx="325.2" cy="606.4" r="8.8" stroke="none" />
<circle cx="336.0" cy="601.6" r="8.9" stroke="none" />
<circle cx="346.9" cy="596.9" r="9.0" stroke="none" />
<circle cx="357.8" cy="592.2" r="9.1" stroke="none" />
<circle cx="368.8" cy="587.6" r="9.2" stroke="none" />
<circle cx="379.7" cy="583.0" r="9.3" stroke="none" />
<circle cx="390.5" cy="578.4" r="9.4" stroke="none" />
<circle cx="401.2" cy="573.8" r="9.5" stroke="none" />
<circle cx="411.6" cy="569.2" r="9.6" stroke="none" />
<circle cx="421.8" cy="564.5" r="9.7" stroke="none" />
<circle cx="431.6" cy="559.8" r="9.8" stroke="none" />
<circle cx="441.0" cy="554.9" r="9.9" stroke="none" />
<circle cx="450.0" cy="550.0" r="10.0" stroke="none" />
<circle cx="458.4" cy="545.2" r="10.1" stroke="none" />
<circle cx="466.1" cy="540.7" r="10.2" stroke="none" />
<circle cx="473.3" cy="536.4" r="10.3" stroke="none" />
<circle cx="480.0" cy="532.4" r="10.4" stroke="none" />
<circle cx="486.3" cy="528.5" r="10.5" stroke="none" />
<circle cx="492.4" cy="524.7" r="10.6" stroke="none" />
<circle cx="498.2" cy="521.0" r="10.7" stroke="none" />
<circle cx="504.0" cy="517.2" r="10.8" stroke="none" />
<circle cx="509.8" cy="513.4" r="10.9" stroke="none" />
<circle cx="515.6" cy="509.4" r="11.0" stroke="none" />
<circle cx="521.7" cy="505.2" r="11.1" stroke="none" />
<circle cx="528.0" cy="500.8" r="11.2" stroke="none" />
<circle cx="534.7" cy="496.1" r="11.3" stroke="none" />
<circle cx="541.9" cy="491.0" r="11.4" stroke="none" />
<circle cx="549.6" cy="485.5" r="11.5" stroke="none" />
<circle cx="558.0" cy="479.6" r="11.6" stroke="none" />
<circle cx="567.1" cy="473.1" r="11.7" stroke="none" />
<circle cx="577.1" cy="466.1" r="11.8" stroke="none" />
<circle cx="588.0" cy="458.4" r="11.9" stroke="none" />
<circle cx="600.0" cy="450.0" r="12.0" stroke="none" />
<circle cx="613.4" cy="440.6" r="12.2" stroke="none" />
<circle cx="628.5" cy="429.9" r="12.3" stroke="none" />
<circle cx="645.0" cy="418.2" r="12.4" stroke="none" />
<circle cx="662.8" cy="405.6" r="12.6" stroke="none" />
<circle cx="681.6" cy="392.2" r="12.8" stroke="none" />
<circle cx="701.3" cy="378.1" r="12.9" stroke="none" />
<circle cx="721.6" cy="363.6" r="13.1" stroke="none" />
<circle cx="742.4" cy="348.8" r="13.2" stroke="none" />
<circle cx="763.4" cy="333.8" r="13.3" stroke="none" />
<circle cx="784.4" cy="318.8" r="13.5" stroke="none" />
<circle cx="805.2" cy="303.8" r="13.7" stroke="none" />
<circle cx="825.6" cy="289.2" r="13.8" stroke="none" />
<circle cx="845.4" cy="275.0" r="13.9" stroke="none" />
<circle cx="864.4" cy="261.4" r="14.1" stroke="none" />
<circle cx="882.4" cy="248.4" r="14.2" stroke="none" />
<circle cx="899.2" cy="236.4" r="14.4" stroke="none" />
<circle cx="914.6" cy="225.4" r="14.6" stroke="none" />
<circle cx="928.3" cy="215.5" r="14.7" stroke="none" />
<circle cx="940.2" cy="207.0" r="14.8" stroke="none" />
<circle cx="950.0" cy="200.0" r="15.0" stroke="none" />
</g>

                        <text x="450.0" y="550.0" 
                            text-anchor="middle" font-size="14" font-family="Georgia, serif" fill="#222" 
                            font-style="italic" style="text-shadow: 1px 1px 2px #fff; pointer-events: none;">Thareth River</text>
                    
<g filter="url(#solid-area)" fill="#4f8cbf" fill-opacity="0.5" style="mix-blend-mode: multiply;">
<circle cx="600.0" cy="650.0" r="4.0" stroke="none" />
<circle cx="600.0" cy="644.3" r="4.0" stroke="none" />
<circle cx="600.0" cy="637.2" r="4.1" stroke="none" />
<circle cx="600.0" cy="628.9" r="4.2" stroke="none" />
<circle cx="600.0" cy="619.6" r="4.2" stroke="none" />
<circle cx="600.0" cy="609.4" r="4.2" stroke="none" />
<circle cx="600.0" cy="598.4" r="4.3" stroke="none" />
<circle cx="600.0" cy="586.8" r="4.3" stroke="none" />
<circle cx="600.0" cy="574.8" r="4.4" stroke="none" />
<circle cx="600.0" cy="562.5" r="4.5" stroke="none" />
<circle cx="600.0" cy="550.0" r="4.5" stroke="none" />
<circle cx="600.0" cy="537.5" r="4.5" stroke="none" />
<circle cx="600.0" cy="525.2" r="4.6" stroke="none" />
<circle cx="600.0" cy="513.2" r="4.7" stroke="none" />
<circle cx="600.0" cy="501.6" r="4.7" stroke="none" />
<circle cx="600.0" cy="490.6" r="4.8" stroke="none" />
<circle cx="600.0" cy="480.4" r="4.8" stroke="none" />
<circle cx="600.0" cy="471.1" r="4.8" stroke="none" />
<circle cx="600.0" cy="462.8" r="4.9" stroke="none" />
<circle cx="600.0" cy="455.7" r="5.0" stroke="none" />
<circle cx="600.0" cy="450.0" r="5.0" stroke="none" />
</g>

                        <text x="600.0" y="550.0" 
                            text-anchor="middle" font-size="14" font-family="Georgia, serif" fill="#222" 
                            font-style="italic" style="text-shadow: 1px 1px 2px #fff; pointer-events: none;">Lune River</text>
                    

                    <circle cx="250.0" cy="670.0" r="10.0" 
                        fill="#c25e5e" fill-opacity="0.8" stroke="#333" stroke-width="1"
                         style="mix-blend-mode: multiply;" />
                

                    <text x="250.0" y="670.0" dy="25.0" 
                        text-anchor="middle" font-size="12" font-family="Georgia, serif" fill="#111" font-weight="bold"
                        style="text-shadow: 1px 1px 0 #fff;">The Spirefort</text>
                

                    <circle cx="450.0" cy="580.0" r="12.0" 
                        fill="#c25e5e" fill-opacity="0.8" stroke="#333" stroke-width="1"
                         style="mix-blend-mode: multiply;" />
                

                    <text x="450.0" y="580.0" dy="27.0" 
                        text-anchor="middle" font-size="12" font-family="Georgia, serif" fill="#111" font-weight="bold"
                        style="text-shadow: 1px 1px 0 #fff;">The Ruins of Othiriel</text>
                

                    <circle cx="500.0" cy="880.0" r="8.0" 
                        fill="#c25e5e" fill-opacity="0.8" stroke="#333" stroke-width="1"
                         style="mix-blend-mode: multiply;" />
                

                    <text x="500.0" y="880.0" dy="23.0" 
                        text-anchor="middle" font-size="12" font-family="Georgia, serif" fill="#111" font-weight="bold"
                        style="text-shadow: 1px 1px 0 #fff;">Hearthwind Pass</text>
                

                    <circle cx="200.0" cy="660.0" r="5.0" 
                        fill="#c25e5e" fill-opacity="0.8" stroke="#333" stroke-width="1"
                         style="mix-blend-mode: multiply;" />
                

                    <text x="200.0" y="660.0" dy="20.0" 
                        text-anchor="middle" font-size="12" font-family="Georgia, serif" fill="#111" font-weight="bold"
                        style="text-shadow: 1px 1px 0 #fff;">The Whispering Bridge</text>
                

                    <circle cx="350.0" cy="600.0" r="3.0" 
                        fill="#c25e5e" fill-opacity="0.8" stroke="#333" stroke-width="1"
                         style="mix-blend-mode: multiply;" />
                

                    <text x="350.0" y="600.0" dy="18.0" 
                        text-anchor="middle" font-size="12" font-family="Georgia, serif" fill="#111" font-weight="bold"
                        style="text-shadow: 1px 1px 0 #fff;">Stonefather’s Step</text>
                

                    <circle cx="250.0" cy="650.0" r="25.0" 
                        fill="#d4a017" fill-opacity="0.8" stroke="#333" stroke-width="1"
                         style="mix-blend-mode: multiply;" />
                

                    <text x="250.0" y="650.0" dy="40.0" 
                        text-anchor="middle" font-size="12" font-family="Georgia, serif" fill="#111" font-weight="bold"
                        style="text-shadow: 1px 1px 0 #fff;">Thareth’s Gate</text>
                

                    <circle cx="450.0" cy="550.0" r="15.0" 
                        fill="#d4a017" fill-opacity="0.8" stroke="#333" stroke-width="1"
                         style="mix-blend-mode: multiply;" />
                

                    <text x="450.0" y="550.0" dy="30.0" 
                        text-anchor="middle" font-size="12" font-family="Georgia, serif" fill="#111" font-weight="bold"
                        style="text-shadow: 1px 1px 0 #fff;">Cendara</text>
                

                    <circle cx="500.0" cy="850.0" r="15.0" 
                        fill="#d4a017" fill-opacity="0.8" stroke="#333" stroke-width="1"
                         style="mix-blend-mode: multiply;" />
                

                    <text x="500.0" y="850.0" dy="30.0" 
                        text-anchor="middle" font-size="12" font-family="Georgia, serif" fill="#111" font-weight="bold"
                        style="text-shadow: 1px 1px 0 #fff;">Veylen</text>
                

                    <circle cx="600.0" cy="450.0" r="20.0" 
                        fill="#d4a017" fill-opacity="0.8" stroke="#333" stroke-width="1"
                         style="mix-blend-mode: multiply;" />
                

                    <text x="600.0" y="450.0" dy="35.0" 
                        text-anchor="middle" font-size="12" font-family="Georgia, serif" fill="#111" font-weight="bold"
                        style="text-shadow: 1px 1px 0 #fff;">Woaden Ford</text>
                

                    <circle cx="400.0" cy="280.0" r="10.0" 
                        fill="#d4a017" fill-opacity="0.8" stroke="#333" stroke-width="1"
                         style="mix-blend-mode: multiply;" />
                

                    <text x="400.0" y="280.0" dy="25.0" 
                        text-anchor="middle" font-size="12" font-family="Georgia, serif" fill="#111" font-weight="bold"
                        style="text-shadow: 1px 1px 0 #fff;">Ashmere</text>
                
</svg>