<svg width="1000" height="1000" viewBox="0 0 1000 1000" xmlns="http://www.w3.org/2000/svg">

        <defs>
            <filter id="solid-area">
                 <!-- Dilate slightly to merge gaps, then blur to smooth edges -->
                 <feMorphology operator="dilate" radius="1" in="SourceGraphic" result="dilated"/>
                 <feGaussianBlur stdDeviation="0.5" in="dilated" />
            </filter>
        </defs>
        <rect width="100%" height="100%" fill="#f4f1ea"/> 
        
<g filter="url(#solid-area)" fill="#aaaaaa" fill-opacity="0.5" style="mix-blend-mode: multiply;">
<circle cx="400.0" cy="250.0" r="50.0" stroke="none" />
<circle cx="405.7" cy="250.0" r="50.0" stroke="none" />
<circle cx="412.8" cy="250.0" r="50.0" stroke="none" />
<circle cx="421.1" cy="250.0" r="50.0" stroke="none" />
<circle cx="430.4" cy="250.0" r="50.0" stroke="none" />
<circle cx="440.6" cy="250.0" r="50.0" stroke="none" />
<circle cx="451.6" cy="250.0" r="50.0" stroke="none" />
<circle cx="463.2" cy="250.0" r="50.0" stroke="none" />
<circle cx="475.2" cy="250.0" r="50.0" stroke="none" />
<circle cx="487.5" cy="250.0" r="50.0" stroke="none" />
<circle cx="500.0" cy="250.0" r="50.0" stroke="none" />
<circle cx="512.5" cy="250.0" r="50.0" stroke="none" />
<circle cx="524.8" cy="250.0" r="50.0" stroke="none" />
<circle cx="536.8" cy="250.0" r="50.0" stroke="none" />
<circle cx="548.4" cy="250.0" r="50.0" stroke="none" />
<circle cx="559.4" cy="250.0" r="50.0" stroke="none" />
<circle cx="569.6" cy="250.0" r="50.0" stroke="none" />
<circle cx="578.9" cy="250.0" r="50.0" stroke="none" />
<circle cx="587.2" cy="250.0" r="50.0" stroke="none" />
<circle cx="594.3" cy="250.0" r="50.0" stroke="none" />
<circle cx="600.0" cy="250.0" r="50.0" stroke="none" />
</g>

                        <text x="500.0" y="250.0" 
                            text-anchor="middle" font-size="14" font-family="Georgia, serif" fill="#222" 
                            font-style="italic" style="text-shadow: 1px 1px 2px #fff; pointer-events: none;">The Emberfields</text>
                    
<g filter="url(#solid-area)" fill="#dcd3c1" fill-opacity="0.5" style="mix-blend-mode: multiply;">
<circle cx="100.0" cy="500.0" r="200.0" stroke="none" />
<circle cx="122.9" cy="498.6" r="200.0" stroke="none" />
<circle cx="151.2" cy="496.8" r="200.0" stroke="none" />
<circle cx="184.3" cy="494.7" r="200.0" stroke="none" />
<circle cx="221.6" cy="492.4" r="200.0" stroke="none" />
<circle cx="262.5" cy="489.8" r="200.0" stroke="none" />
<circle cx="306.4" cy="487.1" r="200.0" stroke="none" />
<circle cx="352.7" cy="484.2" r="200.0" stroke="none" />
<circle cx="400.8" cy="481.2" r="200.0" stroke="none" />
<circle cx="450.1" cy="478.1" r="200.0" stroke="none" />
<circle cx="500.0" cy="475.0" r="200.0" stroke="none" />
<circle cx="549.9" cy="471.9" r="200.0" stroke="none" />
<circle cx="599.2" cy="468.8" r="200.0" stroke="none" />
<circle cx="647.3" cy="465.8" r="200.0" stroke="none" />
<circle cx="693.6" cy="462.9" r="200.0" stroke="none" />
<circle cx="737.5" cy="460.2" r="200.0" stroke="none" />
<circle cx="778.4" cy="457.6" r="200.0" stroke="none" />
<circle cx="815.7" cy="455.3" r="200.0" stroke="none" />
<circle cx="848.8" cy="453.2" r="200.0" stroke="none" />
<circle cx="877.1" cy="451.4" r="200.0" stroke="none" />
<circle cx="900.0" cy="450.0" r="200.0" stroke="none" />
</g>

                        <text x="500.0" y="475.0" 
                            text-anchor="middle" font-size="14" font-family="Georgia, serif" fill="#222" 
                            font-style="italic" style="text-shadow: 1px 1px 2px #fff; pointer-events: none;">The Vale of Thareth</text>
                    
<g filter="url(#solid-area)" fill="#dcd3c1" fill-opacity="0.5" style="mix-blend-mode: multiply;">
<circle cx="50.0" cy="100.0" r="150.0" stroke="none" />
<circle cx="75.8" cy="100.0" r="150.0" stroke="none" />
<circle cx="107.6" cy="100.0" r="150.0" stroke="none" />
<circle cx="144.8" cy="100.0" r="150.0" stroke="none" />
<circle cx="186.8" cy="100.0" r="150.0" stroke="none" />
<circle cx="232.8" cy="100.0" r="150.0" stroke="none" />
<circle cx="282.2" cy="100.0" r="150.0" stroke="none" />
<circle cx="334.3" cy="100.0" r="150.0" stroke="none" />
<circle cx="388.4" cy="100.0" r="150.0" stroke="none" />
<circle cx="443.9" cy="100.0" r="150.0" stroke="none" />
<circle cx="500.0" cy="100.0" r="150.0" stroke="none" />
<circle cx="556.1" cy="100.0" r="150.0" stroke="none" />
<circle cx="611.6" cy="100.0" r="150.0" stroke="none" />
<circle cx="665.7" cy="100.0" r="150.0" stroke="none" />
<circle cx="717.8" cy="100.0" r="150.0" stroke="none" />
<circle cx="767.2" cy="100.0" r="150.0" stroke="none" />
<circle cx="813.2" cy="100.0" r="150.0" stroke="none" />
<circle cx="855.2" cy="100.0" r="150.0" stroke="none" />
<circle cx="892.4" cy="100.0" r="150.0" stroke="none" />
<circle cx="924.2" cy="100.0" r="150.0" stroke="none" />
<circle cx="950.0" cy="100.0" r="150.0" stroke="none" />
</g>

                        <text x="500.0" y="100.0" 
                            text-anchor="middle" font-size="14" font-family="Georgia, serif" fill="#222" 
                            font-style="italic" style="text-shadow: 1px 1px 2px #fff; pointer-events: none;">Serran Floodplain</text>
                    
<g filter="url(#solid-area)" fill="#8f915e" fill-opacity="0.5" style="mix-blend-mode: multiply;">
<circle cx="750.0" cy="400.0" r="60.0" stroke="none" />
<circle cx="754.3" cy="398.6" r="60.5" stroke="none" />
<circle cx="759.6" cy="396.8" r="61.0" stroke="none" />
<circle cx="765.8" cy="394.7" r="61.5" stroke="none" />
<circle cx="772.8" cy="392.4" r="62.0" stroke="none" />
<circle cx="780.5" cy="389.8" r="62.5" stroke="none" />
<circle cx="788.7" cy="387.1" r="63.0" stroke="none" />
<circle cx="797.4" cy="384.2" r="63.5" stroke="none" />
<circle cx="806.4" cy="381.2" r="64.0" stroke="none" />
<circle cx="815.6" cy="378.1" r="64.5" stroke="none" />
<circle cx="825.0" cy="375.0" r="65.0" stroke="none" />
<circle cx="834.4" cy="371.9" r="65.5" stroke="none" />
<circle cx="843.6" cy="368.8" r="66.0" stroke="none" />
<circle cx="852.6" cy="365.8" r="66.5" stroke="none" />
<circle cx="861.3" cy="362.9" r="67.0" stroke="none" />
<circle cx="869.5" cy="360.2" r="67.5" stroke="none" />
<circle cx="877.2" cy="357.6" r="68.0" stroke="none" />
<circle cx="884.2" cy="355.3" r="68.5" stroke="none" />
<circle cx="890.4" cy="353.2" r="69.0" stroke="none" />
<circle cx="895.7" cy="351.4" r="69.5" stroke="none" />
<circle cx="900.0" cy="350.0" r="70.0" stroke="none" />
</g>

                        <text x="825.0" y="375.0" 
                            text-anchor="middle" font-size="14" font-family="Georgia, serif" fill="#222" 
                            font-style="italic" style="text-shadow: 1px 1px 2px #fff; pointer-events: none;">The Blackfen</text>
                    
<g filter="url(#solid-area)" fill="#8c7b64" fill-opacity="0.5" style="mix-blend-mode: multiply;">
<circle cx="50.0" cy="900.0" r="100.0" stroke="none" />
<circle cx="75.8" cy="900.0" r="100.0" stroke="none" />
<circle cx="107.6" cy="900.0" r="100.0" stroke="none" />
<circle cx="144.8" cy="900.0" r="100.0" stroke="none" />
<circle cx="186.8" cy="900.0" r="100.0" stroke="none" />
<circle cx="232.8" cy="900.0" r="100.0" stroke="none" />
<circle cx="282.2" cy="900.0" r="100.0" stroke="none" />
<circle cx="334.3" cy="900.0" r="100.0" stroke="none" />
<circle cx="388.4" cy="900.0" r="100.0" stroke="none" />
<circle cx="443.9" cy="900.0" r="100.0" stroke="none" />
<circle cx="500.0" cy="900.0" r="100.0" stroke="none" />
<circle cx="556.1" cy="900.0" r="100.0" stroke="none" />
<circle cx="611.6" cy="900.0" r="100.0" stroke="none" />
<circle cx="665.7" cy="900.0" r="100.0" stroke="none" />
<circle cx="717.8" cy="900.0" r="100.0" stroke="none" />
<circle cx="767.2" cy="900.0" r="100.0" stroke="none" />
<circle cx="813.2" cy="900.0" r="100.0" stroke="none" />
<circle cx="855.2" cy="900.0" r="100.0" stroke="none" />
<circle cx="892.4" cy="900.0" r="100.0" stroke="none" />
<circle cx="924.2" cy="900.0" r="100.0" stroke="none" />
<circle cx="950.0" cy="900.0" r="100.0" stroke="none" />
</g>

                        <text x="500.0" y="900.0" 
                            text-anchor="middle" font-size="14" font-family="Georgia, serif" fill="#222" 
                            font-style="italic" style="text-shadow: 1px 1px 2px #fff; pointer-events: none;">Glimmerstone Peaks</text>
                    
<g filter="url(#solid-area)" fill="#89c4d9" fill-opacity="0.5" style="mix-blend-mode: multiply;">
<circle cx="450.0" cy="750.0" r="30.0" stroke="none" />
<circle cx="452.9" cy="750.0" r="30.0" stroke="none" />
<circle cx="456.4" cy="750.0" r="30.0" stroke="none" />
<circle cx="460.5" cy="750.0" r="30.0" stroke="none" />
<circle cx="465.2" cy="750.0" r="30.0" stroke="none" />
<circle cx="470.3" cy="750.0" r="30.0" stroke="none" />
<circle cx="475.8" cy="750.0" r="30.0" stroke="none" />
<circle cx="481.6" cy="750.0" r="30.0" stroke="none" />
<circle cx="487.6" cy="750.0" r="30.0" stroke="none" />
<circle cx="493.8" cy="750.0" r="30.0" stroke="none" />
<circle cx="500.0" cy="750.0" r="30.0" stroke="none" />
<circle cx="506.2" cy="750.0" r="30.0" stroke="none" />
<circle cx="512.4" cy="750.0" r="30.0" stroke="none" />
<circle cx="518.4" cy="750.0" r="30.0" stroke="none" />
<circle cx="524.2" cy="750.0" r="30.0" stroke="none" />
<circle cx="529.7" cy="750.0" r="30.0" stroke="none" />
<circle cx="534.8" cy="750.0" r="30.0" stroke="none" />
<circle cx="539.5" cy="750.0" r="30.0" stroke="none" />
<circle cx="543.6" cy="750.0" r="30.0" stroke="none" />
<circle cx="547.1" cy="750.0" r="30.0" stroke="none" />
<circle cx="550.0" cy="750.0" r="30.0" stroke="none" />
</g>

                        <text x="500.0" y="750.0" 
                            text-anchor="middle" font-size="14" font-family="Georgia, serif" fill="#222" 
                            font-style="italic" style="text-shadow: 1px 1px 2px #fff; pointer-events: none;">The Mirror Lakes</text>
                    
<g filter="url(#solid-area)" fill="#4f8cbf" fill-opacity="0.5" style="mix-blend-mode: multiply;">
<circle cx="100.0" cy="700.0" r="5.0" stroke="none" />
<circle cx="102.6" cy="695.8" r="5.2" stroke="none" />
<circle cx="105.5" cy="690.6" r="5.5" stroke="none" />
<circle cx="108.6" cy="684.7" r="5.8" stroke="none" />
<circle cx="112.0" cy="678.0" r="6.0" stroke="none" />
<circle cx="115.6" cy="670.7" r="6.2" stroke="none" />
<circle cx="119.5" cy="662.9" r="6.5" stroke="none" />
<circle cx="123.6" cy="654.6" r="6.8" stroke="none" />
<circle cx="128.0" cy="646.0" r="7.0" stroke="none" />
<circle cx="132.6" cy="637.1" r="7.2" stroke="none" />
<circle cx="137.5" cy="628.1" r="7.5" stroke="none" />
<circle cx="142.6" cy="619.0" r="7.8" stroke="none" />
<circle cx="148.0" cy="610.0" r="8.0" stroke="none" />
<circle cx="153.6" cy="601.1" r="8.2" stroke="none" />
<circle cx="159.5" cy="592.4" r="8.5" stroke="none" />
<circle cx="165.6" cy="584.0" r="8.8" stroke="none" />
<circle cx="172.0" cy="576.0" r="9.0" stroke="none" />
<circle cx="178.6" cy="568.5" r="9.2" stroke="none" />
<circle cx="185.5" cy="561.6" r="9.5" stroke="none" />
<circle cx="192.6" cy="555.4" r="9.8" stroke="none" />
<circle cx="200.0" cy="550.0" r="10.0" stroke="none" />
<circle cx="207.7" cy="545.2" r="10.2" stroke="none" />
<circle cx="215.9" cy="541.0" r="10.5" stroke="none" />
<circle cx="224.6" cy="537.1" r="10.8" stroke="none" />
<circle cx="233.6" cy="533.6" r="11.0" stroke="none" />
<circle cx="243.0" cy="530.5" r="11.2" stroke="none" />
<circle cx="252.7" cy="527.6" r="11.5" stroke="none" />
<circle cx="262.6" cy="525.1" r="11.8" stroke="none" />
<circle cx="272.8" cy="522.8" r="12.0" stroke="none" />
<circle cx="283.2" cy="520.7" r="12.2" stroke="none" />
<circle cx="293.8" cy="518.8" r="12.5" stroke="none" />
<circle cx="304.4" cy="516.9" r="12.8" stroke="none" />
<circle cx="315.2" cy="515.2" r="13.0" stroke="none" />
<circle cx="326.0" cy="513.5" r="13.2" stroke="none" />
<circle cx="336.9" cy="511.9" r="13.5" stroke="none" />
<circle cx="347.7" cy="510.2" r="13.8" stroke="none" />
<circle cx="358.4" cy="508.4" r="14.0" stroke="none" />
<circle cx="369.0" cy="506.5" r="14.2" stroke="none" />
<circle cx="379.6" cy="504.6" r="14.5" stroke="none" />
<circle cx="389.9" cy="502.4" r="14.8" stroke="none" />
<circle cx="400.0" cy="500.0" r="15.0" stroke="none" />
<circle cx="409.9" cy="497.6" r="15.2" stroke="none" />
<circle cx="419.6" cy="495.2" r="15.5" stroke="none" />
<circle cx="429.0" cy="493.0" r="15.8" stroke="none" />
<circle cx="438.4" cy="490.8" r="16.0" stroke="none" />
<circle cx="447.7" cy="488.7" r="16.2" stroke="none" />
<circle cx="456.9" cy="486.6" r="16.5" stroke="none" />
<circle cx="466.0" cy="484.5" r="16.8" stroke="none" />
<circle cx="475.2" cy="482.4" r="17.0" stroke="none" />
<circle cx="484.4" cy="480.3" r="17.2" stroke="none" />
<circle cx="493.8" cy="478.1" r="17.5" stroke="none" />
<circle cx="503.2" cy="475.9" r="17.8" stroke="none" />
<circle cx="512.8" cy="473.6" r="18.0" stroke="none" />
<circle cx="522.6" cy="471.2" r="18.2" stroke="none" />
<circle cx="532.6" cy="468.7" r="18.5" stroke="none" />
<circle cx="543.0" cy="466.0" r="18.8" stroke="none" />
<circle cx="553.6" cy="463.2" r="19.0" stroke="none" />
<circle cx="564.6" cy="460.2" r="19.2" stroke="none" />
<circle cx="576.0" cy="457.0" r="19.5" stroke="none" />
<circle cx="587.7" cy="453.6" r="19.8" stroke="none" />
<circle cx="600.0" cy="450.0" r="20.0" stroke="none" />
<circle cx="613.1" cy="446.0" r="20.2" stroke="none" />
<circle cx="627.3" cy="441.6" r="20.5" stroke="none" />
<circle cx="642.5" cy="436.8" r="20.8" stroke="none" />
<circle cx="658.4" cy="431.6" r="21.0" stroke="none" />
<circle cx="675.0" cy="426.2" r="21.2" stroke="none" />
<circle cx="692.1" cy="420.5" r="21.5" stroke="none" />
<circle cx="709.5" cy="414.7" r="21.8" stroke="none" />
<circle cx="727.2" cy="408.8" r="22.0" stroke="none" />
<circle cx="744.9" cy="402.8" r="22.2" stroke="none" />
<circle cx="762.5" cy="396.9" r="22.5" stroke="none" />
<circle cx="779.9" cy="391.0" r="22.8" stroke="none" />
<circle cx="796.8" cy="385.2" r="23.0" stroke="none" />
<circle cx="813.2" cy="379.6" r="23.2" stroke="none" />
<circle cx="828.9" cy="374.2" r="23.5" stroke="none" />
<circle cx="843.8" cy="369.1" r="23.8" stroke="none" />
<circle cx="857.6" cy="364.4" r="24.0" stroke="none" />
<circle cx="870.3" cy="360.1" r="24.2" stroke="none" />
<circle cx="881.7" cy="356.2" r="24.5" stroke="none" />
<circle cx="891.7" cy="352.8" r="24.8" stroke="none" />
<circle cx="900.0" cy="350.0" r="25.0" stroke="none" />
</g>

                        <text x="400.0" y="500.0" 
                            text-anchor="middle" font-size="14" font-family="Georgia, serif" fill="#222" 
                            font-style="italic" style="text-shadow: 1px 1px 2px #fff; pointer-events: none;">Thareth River</text>
                    
<g filter="url(#solid-area)" fill="#4f8cbf" fill-opacity="0.5" style="mix-blend-mode: multiply;">
<circle cx="650.0" cy="750.0" r="5.0" stroke="none" />
<circle cx="648.6" cy="741.4" r="5.2" stroke="none" />
<circle cx="646.8" cy="730.8" r="5.3" stroke="none" />
<circle cx="644.7" cy="718.4" r="5.5" stroke="none" />
<circle cx="642.4" cy="704.4" r="5.6" stroke="none" />
<circle cx="639.8" cy="689.1" r="5.8" stroke="none" />
<circle cx="637.1" cy="672.6" r="5.9" stroke="none" />
<circle cx="634.2" cy="655.2" r="6.0" stroke="none" />
<circle cx="631.2" cy="637.2" r="6.2" stroke="none" />
<circle cx="628.1" cy="618.7" r="6.3" stroke="none" />
<circle cx="625.0" cy="600.0" r="6.5" stroke="none" />
<circle cx="621.9" cy="581.3" r="6.7" stroke="none" />
<circle cx="618.8" cy="562.8" r="6.8" stroke="none" />
<circle cx="615.8" cy="544.8" r="7.0" stroke="none" />
<circle cx="612.9" cy="527.4" r="7.1" stroke="none" />
<circle cx="610.2" cy="510.9" r="7.2" stroke="none" />
<circle cx="607.6" cy="495.6" r="7.4" stroke="none" />
<circle cx="605.3" cy="481.6" r="7.5" stroke="none" />
<circle cx="603.2" cy="469.2" r="7.7" stroke="none" />
<circle cx="601.4" cy="458.6" r="7.8" stroke="none" />
<circle cx="600.0" cy="450.0" r="8.0" stroke="none" />
</g>

                        <text x="625.0" y="600.0" 
                            text-anchor="middle" font-size="14" font-family="Georgia, serif" fill="#222" 
                            font-style="italic" style="text-shadow: 1px 1px 2px #fff; pointer-events: none;">Lune River</text>
                    

                    <circle cx="200.0" cy="570.0" r="8.0" 
                        fill="#c25e5e" fill-opacity="0.8" stroke="#333" stroke-width="1"
                         style="mix-blend-mode: multiply;" />
                

                    <text x="200.0" y="570.0" dy="23.0" 
                        text-anchor="middle" font-size="12" font-family="Georgia, serif" fill="#111" font-weight="bold"
                        style="text-shadow: 1px 1px 0 #fff;">Spirefort</text>
                

                    <circle cx="400.0" cy="540.0" r="12.0" 
                        fill="#c25e5e" fill-opacity="0.8" stroke="#333" stroke-width="1"
                         style="mix-blend-mode: multiply;" />
                

                    <text x="400.0" y="540.0" dy="27.0" 
                        text-anchor="middle" font-size="12" font-family="Georgia, serif" fill="#111" font-weight="bold"
                        style="text-shadow: 1px 1px 0 #fff;">Ruins of Othiriel</text>
                

                    <circle cx="320.0" cy="820.0" r="5.0" 
                        fill="#c25e5e" fill-opacity="0.8" stroke="#333" stroke-width="1"
                         style="mix-blend-mode: multiply;" />
                

                    <text x="320.0" y="820.0" dy="20.0" 
                        text-anchor="middle" font-size="12" font-family="Georgia, serif" fill="#111" font-weight="bold"
                        style="text-shadow: 1px 1px 0 #fff;">Hearthwind Pass</text>
                

                    <circle cx="150.0" cy="560.0" r="5.0" 
                        fill="#c25e5e" fill-opacity="0.8" stroke="#333" stroke-width="1"
                         style="mix-blend-mode: multiply;" />
                

                    <text x="150.0" y="560.0" dy="20.0" 
                        text-anchor="middle" font-size="12" font-family="Georgia, serif" fill="#111" font-weight="bold"
                        style="text-shadow: 1px 1px 0 #fff;">The Whispering Bridge</text>
                

                    <circle cx="450.0" cy="485.0" r="3.0" 
                        fill="#c25e5e" fill-opacity="0.8" stroke="#333" stroke-width="1"
                         style="mix-blend-mode: multiply;" />
                

                    <text x="450.0" y="485.0" dy="18.0" 
                        text-anchor="middle" font-size="12" font-family="Georgia, serif" fill="#111" font-weight="bold"
                        style="text-shadow: 1px 1px 0 #fff;">Stonefather’s Step</text>
                

                    <circle cx="200.0" cy="550.0" r="20.0" 
                        fill="#d4a017" fill-opacity="0.8" stroke="#333" stroke-width="1"
                         style="mix-blend-mode: multiply;" />
                

                    <text x="200.0" y="550.0" dy="35.0" 
                        text-anchor="middle" font-size="12" font-family="Georgia, serif" fill="#111" font-weight="bold"
                        style="text-shadow: 1px 1px 0 #fff;">Thareth’s Gate</text>
                

                    <circle cx="400.0" cy="500.0" r="15.0" 
                        fill="#d4a017" fill-opacity="0.8" stroke="#333" stroke-width="1"
                         style="mix-blend-mode: multiply;" />
                

                    <text x="400.0" y="500.0" dy="30.0" 
                        text-anchor="middle" font-size="12" font-family="Georgia, serif" fill="#111" font-weight="bold"
                        style="text-shadow: 1px 1px 0 #fff;">Cendara</text>
                

                    <circle cx="300.0" cy="800.0" r="12.0" 
                        fill="#d4a017" fill-opacity="0.8" stroke="#333" stroke-width="1"
                         style="mix-blend-mode: multiply;" />
                

                    <text x="300.0" y="800.0" dy="27.0" 
                        text-anchor="middle" font-size="12" font-family="Georgia, serif" fill="#111" font-weight="bold"
                        style="text-shadow: 1px 1px 0 #fff;">Veylen</text>
                

                    <circle cx="600.0" cy="450.0" r="15.0" 
                        fill="#d4a017" fill-opacity="0.8" stroke="#333" stroke-width="1"
                         style="mix-blend-mode: multiply;" />
                

                    <text x="600.0" y="450.0" dy="30.0" 
                        text-anchor="middle" font-size="12" font-family="Georgia, serif" fill="#111" font-weight="bold"
                        style="text-shadow: 1px 1px 0 #fff;">Woaden Ford</text>
                

                    <circle cx="500.0" cy="210.0" r="8.0" 
                        fill="#d4a017" fill-opacity="0.8" stroke="#333" stroke-width="1"
                         style="mix-blend-mode: multiply;" />
                

                    <text x="500.0" y="210.0" dy="23.0" 
                        text-anchor="middle" font-size="12" font-family="Georgia, serif" fill="#111" font-weight="bold"
                        style="text-shadow: 1px 1px 0 #fff;">Ashmere</text>
                
</svg>